<svg width="17" height="20" viewBox="0 0 17 20" fill="none" xmlns="http://www.w3.org/2000/svg">
<path d="M16.4992 7.84346L10.252 1.59628C9.36313 0.70237 8.1534 0.201291 6.89273 0.204853H2.07943C1.20543 0.205922 0.497167 0.914184 0.496094 1.78818V18.8881C0.496094 19.0631 0.637887 19.2049 0.812767 19.2049H10.1348C10.9459 19.2049 11.6923 18.7617 12.0807 18.0497C12.9388 16.4749 14.2328 15.1809 15.8076 14.3227C16.5197 13.9343 16.9627 13.1881 16.9628 12.3769V8.96286C16.9639 8.54286 16.797 8.13972 16.4992 7.84346ZM16.3294 12.3769C16.3295 12.9563 16.013 13.4897 15.5042 13.7671C13.8226 14.6831 12.4409 16.0647 11.525 17.7463C11.2475 18.2551 10.7143 18.5715 10.1348 18.5715H1.12943V1.78818C1.12943 1.2635 1.55475 0.838184 2.07943 0.838184H6.89273C7.9852 0.835217 9.03353 1.26944 9.80393 2.04406L16.0514 8.29126C16.2288 8.46979 16.3288 8.71112 16.3294 8.96286V12.3769Z" fill="#CECECE"/>
<path d="M14.9704 8.2145L9.2479 2.49205C8.59616 1.83663 7.70923 1.46927 6.7849 1.47175H2.71318C2.1885 1.47175 1.76318 1.89707 1.76318 2.42175V8.43843C1.76318 8.6133 1.90496 8.7551 2.07984 8.7551H14.7465C14.8746 8.7551 14.9901 8.67803 15.0391 8.5597C15.0882 8.44137 15.061 8.3051 14.9704 8.2145ZM9.9965 8.12177H2.39652V2.42175C2.39652 2.24687 2.5383 2.10509 2.71318 2.10509H6.7849C7.54116 2.10303 8.26683 2.40359 8.80016 2.93983L9.9965 4.13619V8.12177ZM10.6299 8.12177V4.76952L13.9821 8.12177H10.6299Z" fill="#CECECE"/>
<path d="M14.1132 9.70483H12.2132C11.6885 9.70483 11.2632 10.1302 11.2632 10.6549C11.2632 11.1796 11.6885 11.6049 12.2132 11.6049H14.1132C14.6379 11.6049 15.0632 11.1796 15.0632 10.6549C15.0632 10.1302 14.6379 9.70483 14.1132 9.70483ZM14.1132 10.9715H12.2132C12.0383 10.9715 11.8965 10.8298 11.8965 10.6549C11.8965 10.48 12.0383 10.3382 12.2132 10.3382H14.1132C14.2881 10.3382 14.4299 10.48 14.4299 10.6549C14.4299 10.8298 14.2881 10.9715 14.1132 10.9715Z" fill="#CECECE"/>
</svg>
