<svg width="25" height="25" viewBox="0 0 25 25" fill="none" xmlns="http://www.w3.org/2000/svg">
<path fill-rule="evenodd" clip-rule="evenodd" d="M9.66187 1.685C11.2519 1.685 12.6619 2.566 12.6619 4.185C12.7699 5.294 11.6288 7.509 11.6619 8.687C11.6619 9.00996 11.6999 9.35196 11.7748 9.71396C11.9459 9.687 12.1319 9.67996 12.3068 9.689C13.3848 6.397 14.9948 4.685 17.1619 4.685C19.8408 4.685 22.6619 7.318 22.6619 9.685C22.6619 11.275 21.7808 12.685 20.1619 12.685C18.9679 12.776 16.8579 11.652 15.6599 11.685C15.3368 11.685 14.9948 11.723 14.6328 11.798C14.6599 11.969 14.6659 12.155 14.6579 12.331C17.9488 13.408 19.6619 15.018 19.6619 17.185C19.6619 19.864 17.0288 22.685 14.6619 22.685C13.0719 22.685 11.6619 21.804 11.6619 20.185C11.5839 18.928 12.6948 16.898 12.6619 15.683C12.6619 15.36 12.6239 15.018 12.5488 14.656C12.3779 14.683 12.1908 14.69 12.0159 14.681C10.9388 17.973 9.32883 19.685 7.16187 19.685C4.48287 19.685 1.66187 17.052 1.66187 14.685C1.66187 13.095 2.54287 11.685 4.16187 11.685C5.41887 11.607 7.44887 12.718 8.66387 12.685C8.98683 12.685 9.32883 12.647 9.69083 12.572C9.66387 12.401 9.65683 12.215 9.66587 12.039C6.37487 10.962 4.66187 9.35196 4.66187 7.185C4.66187 4.506 7.29487 1.685 9.66187 1.685ZM14.3999 13.298C14.1968 13.709 13.8799 14.057 13.4939 14.301C13.6059 14.783 13.6619 15.243 13.6619 15.683C13.7699 16.793 12.6288 19.007 12.6619 20.185C12.6619 21.128 13.5539 21.685 14.6619 21.685C16.4608 21.685 18.6619 19.327 18.6619 17.185C18.6619 15.555 17.2848 14.251 14.3999 13.298ZM4.16187 12.685C3.21887 12.685 2.66187 13.577 2.66187 14.685C2.66187 16.484 5.01987 18.685 7.16187 18.685C8.79187 18.685 10.0959 17.308 11.0488 14.423C10.6359 14.219 10.2888 13.903 10.0448 13.516C9.56387 13.629 9.10387 13.685 8.66387 13.685C7.55387 13.793 5.33987 12.652 4.16187 12.685ZM12.1619 10.685C11.3339 10.685 10.6619 11.357 10.6619 12.185C10.6619 13.013 11.3339 13.685 12.1619 13.685C12.9899 13.685 13.6619 13.013 13.6619 12.185C13.6619 11.357 12.9899 10.685 12.1619 10.685ZM17.1619 5.685C15.5319 5.685 14.2279 7.062 13.2748 9.945C13.6868 10.151 14.0348 10.467 14.2788 10.854C14.7588 10.741 15.2199 10.685 15.6599 10.685C16.7699 10.577 18.9839 11.718 20.1619 11.685C21.1039 11.685 21.6619 10.793 21.6619 9.685C21.6619 7.886 19.3039 5.685 17.1619 5.685ZM9.66187 2.685C7.86287 2.685 5.66187 5.043 5.66187 7.185C5.66187 8.815 7.03887 10.119 9.92283 11.072C10.1279 10.659 10.4439 10.312 10.8308 10.068C10.7179 9.587 10.6619 9.127 10.6619 8.687C10.5539 7.577 11.6948 5.363 11.6619 4.185C11.6619 3.242 10.7699 2.685 9.66187 2.685Z" fill="#CECECE"/>
</svg>
