<svg width="46" height="45" viewBox="0 0 46 45" fill="none" xmlns="http://www.w3.org/2000/svg">
<rect opacity="0.1" x="0.329987" width="40" height="40" rx="20" fill="white"/>
<mask id="mask0_4_655" style="mask-type:luminance" maskUnits="userSpaceOnUse" x="9" y="5" width="32" height="40">
<path d="M40.7589 5.24512H9.38635V44.2323H40.7589V5.24512Z" fill="white"/>
</mask>
<g mask="url(#mask0_4_655)">
<path d="M35.733 23.5965H18.5239V17.8093C18.5239 14.6603 21.1201 12.0983 24.3111 12.0983C27.4602 12.0983 30.0221 14.6603 30.0221 17.8093V20.0937C30.0221 20.7245 30.5335 21.2359 31.1643 21.2359H35.7331C36.3639 21.2359 36.8753 20.7245 36.8753 20.0937V17.8093C36.8753 10.8814 31.2391 5.24512 24.3112 5.24512C17.3412 5.24519 11.6708 10.8814 11.6708 17.8094V23.793C10.3413 24.2644 9.38635 25.534 9.38635 27.0231V40.8056C9.38635 42.695 10.9235 44.2322 12.813 44.2322H35.733C37.6225 44.2322 39.1596 42.695 39.1596 40.8056V27.0231C39.1596 25.1337 37.6225 23.5965 35.733 23.5965ZM13.9552 17.8094C13.9552 12.1411 18.6009 7.5296 24.3111 7.5296C29.9794 7.5296 34.5908 12.1411 34.5908 17.8094V18.9515H32.3065V17.8094C32.3065 13.4006 28.7197 9.81401 24.3111 9.81401C19.8894 9.81401 16.2396 13.4021 16.2396 17.8094V23.5966H13.9552V17.8094ZM36.8752 40.8056C36.8752 41.4354 36.3628 41.9478 35.733 41.9478H12.813C12.1832 41.9478 11.6708 41.4354 11.6708 40.8056V27.0231C11.6708 26.3933 12.1832 25.8809 12.813 25.8809C13.8781 25.8809 34.8105 25.8809 35.733 25.8809C36.3628 25.8809 36.8752 26.3933 36.8752 27.0231V40.8056Z" fill="white"/>
<path d="M24.3081 28.168C22.4186 28.168 20.8814 29.7051 20.8814 31.5946C20.8814 33.0836 21.8364 34.3532 23.1658 34.8247V38.5239C23.1658 39.1547 23.6773 39.6662 24.3081 39.6662C24.9389 39.6662 25.4503 39.1547 25.4503 38.5239V34.8247C26.7797 34.3532 27.7347 33.0836 27.7347 31.5946C27.7347 29.7051 26.1975 28.168 24.3081 28.168ZM24.3081 32.7367C23.6782 32.7367 23.1658 32.2243 23.1658 31.5945C23.1658 30.9647 23.6782 30.4523 24.3081 30.4523C24.9379 30.4523 25.4503 30.9647 25.4503 31.5945C25.4503 32.2243 24.9379 32.7367 24.3081 32.7367Z" fill="#FF3600"/>
</g>
</svg>
