<svg width="41" height="41" viewBox="0 0 41 41" fill="none" xmlns="http://www.w3.org/2000/svg">
<mask id="mask0_172_384" style="mask-type:luminance" maskUnits="userSpaceOnUse" x="0" y="1" width="41" height="40">
<path d="M40.0166 1.21533H0.992188V40.2397H40.0166V1.21533Z" fill="white"/>
</mask>
<g mask="url(#mask0_172_384)">
<path d="M36.5867 7.00781H4.42207C2.53472 7.00781 0.992188 8.54357 0.992188 10.4377V31.017C0.992188 32.9118 2.53571 34.4468 4.42207 34.4468H36.5867C38.474 34.4468 40.0166 32.9111 40.0166 31.017V10.4377C40.0166 8.54311 38.4732 7.00781 36.5867 7.00781ZM36.0601 9.2944C34.9511 10.4069 21.9255 23.475 21.3903 24.0119C20.9434 24.4602 20.0656 24.4606 19.6184 24.0119L4.94874 9.2944H36.0601ZM3.27877 30.5966V10.8581L13.1161 20.7273L3.27877 30.5966ZM4.94874 32.1602L14.7303 22.3468L17.999 25.6262C19.3384 26.97 21.6708 26.9695 23.0099 25.6262L26.2785 22.3469L36.0601 32.1602H4.94874ZM37.73 30.5966L27.8928 20.7273L37.73 10.8581V30.5966Z" fill="white"/>
</g>
</svg>
