<svg width="40" height="40" viewBox="0 0 40 40" fill="none" xmlns="http://www.w3.org/2000/svg">
<mask id="mask0_172_381" style="mask-type:luminance" maskUnits="userSpaceOnUse" x="-1" y="0" width="41" height="40">
<path d="M39.0166 0.215332H-0.0078125V39.2397H39.0166V0.215332Z" fill="white"/>
</mask>
<g mask="url(#mask0_172_381)">
<path d="M30.8339 24.3897C30.035 23.5577 29.0714 23.113 28.05 23.113C27.0369 23.113 26.0651 23.5496 25.2332 24.3814L22.6305 26.9758C22.4163 26.8606 22.2022 26.7535 21.9963 26.6464C21.6999 26.4981 21.4198 26.3581 21.1809 26.2098C18.743 24.6615 16.5274 22.6435 14.4024 20.0326C13.3728 18.7312 12.681 17.6358 12.1786 16.5239C12.854 15.9061 13.48 15.2637 14.0894 14.646C14.32 14.4154 14.5507 14.1766 14.7812 13.9459C16.5109 12.2163 16.5109 9.97599 14.7812 8.24635L12.5327 5.99783C12.2774 5.7425 12.0138 5.47894 11.7668 5.21537C11.2725 4.70471 10.7537 4.17759 10.2183 3.68341C9.41937 2.89271 8.46397 2.47266 7.45913 2.47266C6.4543 2.47266 5.48241 2.89271 4.65877 3.68341C4.65054 3.69164 4.65054 3.69164 4.6423 3.69988L1.84193 6.52495C0.787679 7.5792 0.186425 8.86408 0.0546435 10.3548C-0.14303 12.7599 0.565298 15.0002 1.1089 16.4662C2.44319 20.0656 4.43639 23.4013 7.40972 26.9758C11.0172 31.2835 15.3578 34.6851 20.3161 37.0818C22.2105 37.9796 24.7391 39.0421 27.5641 39.2233C27.737 39.2316 27.9183 39.2398 28.083 39.2398C29.9856 39.2398 31.5835 38.5562 32.8354 37.1972C32.8437 37.1807 32.8601 37.1725 32.8683 37.156C33.2966 36.6371 33.7908 36.1676 34.3097 35.6652C34.6639 35.3275 35.0263 34.9734 35.3804 34.6027C36.1959 33.7543 36.6241 32.766 36.6241 31.753C36.6241 30.7316 36.1876 29.7515 35.3557 28.9279L30.8339 24.3897ZM33.7826 33.0625C33.7743 33.0707 33.7743 33.0625 33.7826 33.0625C33.4613 33.4085 33.1319 33.7215 32.7777 34.0673C32.2424 34.578 31.6988 35.1134 31.1881 35.7146C30.3562 36.6042 29.3761 37.0242 28.0913 37.0242C27.9677 37.0242 27.8359 37.0242 27.7123 37.016C25.2662 36.8595 22.9929 35.9041 21.288 35.0887C16.6262 32.8319 12.5327 29.628 9.13111 25.5674C6.32252 22.1822 4.44463 19.0525 3.20094 15.692C2.43496 13.6412 2.15492 12.0433 2.27846 10.5361C2.36083 9.57238 2.73146 8.77348 3.41508 8.08987L6.22368 5.28126C6.62726 4.90239 7.05555 4.69648 7.47561 4.69648C7.9945 4.69648 8.41456 5.00947 8.67812 5.27303C8.68635 5.28126 8.69459 5.2895 8.70283 5.29774C9.20522 5.7672 9.68298 6.25315 10.1854 6.77204C10.4407 7.0356 10.7042 7.29917 10.9679 7.57097L13.2163 9.8195C14.0894 10.6926 14.0894 11.4997 13.2163 12.3728C12.9775 12.6116 12.7469 12.8504 12.508 13.0811C11.8161 13.7895 11.1572 14.4484 10.4407 15.0907C10.4242 15.1072 10.4078 15.1155 10.3996 15.132C9.69117 15.8403 9.82298 16.5321 9.97127 17.0017C9.97946 17.0263 9.98766 17.051 9.99595 17.0757C10.5807 18.4924 11.4043 19.8267 12.6562 21.4163L12.6645 21.4246C14.9377 24.2249 17.3346 26.4075 19.9784 28.0795C20.3161 28.2937 20.662 28.4666 20.9915 28.6313C21.288 28.7796 21.5681 28.9196 21.8069 29.0679C21.8399 29.0844 21.8727 29.1091 21.9057 29.1256C22.1857 29.2656 22.4493 29.3314 22.7211 29.3314C23.4047 29.3314 23.833 28.9031 23.973 28.7631L26.7899 25.9463C27.0699 25.6662 27.5147 25.3286 28.0336 25.3286C28.5442 25.3286 28.9642 25.6498 29.2196 25.9298C29.2279 25.938 29.2279 25.938 29.2361 25.9463L33.7743 30.4846C34.6227 31.3247 34.6227 32.1895 33.7826 33.0625Z" fill="white"/>
<path d="M21.0818 9.49828C23.2397 9.86063 25.2 10.882 26.7648 12.4469C28.3298 14.0117 29.3429 15.972 29.7135 18.13C29.8041 18.6736 30.2735 19.0524 30.8089 19.0524C30.8748 19.0524 30.9325 19.0442 30.9984 19.0359C31.6079 18.9371 32.0115 18.3605 31.9125 17.7511C31.4679 15.1401 30.2324 12.7598 28.3462 10.8737C26.4602 8.98759 24.0798 7.75213 21.4688 7.30737C20.8594 7.20853 20.2911 7.61212 20.1841 8.21337C20.0769 8.81463 20.4723 9.39936 21.0818 9.49828Z" fill="white"/>
<path d="M38.9719 17.4298C38.2389 13.1304 36.2127 9.21814 33.0994 6.10481C29.986 2.99146 26.0737 0.965317 21.7744 0.232284C21.1731 0.125211 20.6048 0.537025 20.4977 1.13828C20.3989 1.74778 20.8025 2.31609 21.412 2.42316C25.2501 3.07382 28.7506 4.89407 31.5344 7.66972C34.3183 10.4536 36.1303 13.954 36.781 17.7922C36.8716 18.3358 37.3411 18.7147 37.8765 18.7147C37.9423 18.7147 38 18.7064 38.0659 18.6982C38.6672 18.6076 39.079 18.0311 38.9719 17.4298Z" fill="white"/>
</g>
</svg>
