<svg width="45" height="45" viewBox="0 0 45 45" fill="none" xmlns="http://www.w3.org/2000/svg">
<rect opacity="0.1" width="40" height="40" rx="20" fill="white"/>
<mask id="mask0_4_636" style="mask-type:luminance" maskUnits="userSpaceOnUse" x="5" y="5" width="40" height="40">
<path d="M44.6108 5.6698H5.58643V44.6942H44.6108V5.6698Z" fill="white"/>
</mask>
<g mask="url(#mask0_4_636)">
<path d="M38.9231 11.358C31.646 3.77357 18.5521 3.77387 11.2751 11.358C3.69069 18.6351 3.69099 31.7291 11.2751 39.006C18.5522 46.5905 31.6462 46.5902 38.9231 39.006C46.5075 31.7288 46.5071 18.6349 38.9231 11.358ZM25.099 42.4321C15.5873 42.4321 7.84896 34.6937 7.84896 25.182C8.79649 2.29734 41.4051 2.30401 42.3492 25.1822C42.3492 34.6938 34.6109 42.4321 25.099 42.4321Z" fill="white"/>
<path d="M37.7489 25.1817H40.0489C39.2253 5.3434 10.9647 5.35873 10.1486 25.1817H12.4486C12.4486 23.8026 12.6713 22.4747 13.0811 21.2309L15.2594 22.6876L16.5379 20.7756L14.0156 19.089C14.9353 17.4229 16.2192 15.9848 17.76 14.8836L18.8596 17.5675L20.9879 16.6956L19.7657 13.7125C21.0573 13.1096 22.4664 12.7186 23.9489 12.5844V15.9815H26.2489V12.5844C27.9564 12.739 29.5668 13.2341 31.0119 14.0015L29.8025 16.6545L31.8954 17.6085L32.9583 15.2766C34.2686 16.3185 35.3682 17.6143 36.182 19.0889L33.6598 20.7756L34.9382 22.6875L37.1166 21.2309C37.5261 22.4747 37.7489 23.8026 37.7489 25.1817Z" fill="white"/>
<path d="M27.4918 18.9786L25.323 24.0398C23.3117 23.9099 21.6487 25.5137 21.6487 27.4818C21.6487 29.3841 23.1963 30.9318 25.0987 30.9318C28.2414 30.9235 29.7241 27.0482 27.4364 24.9472L29.6058 19.8847L27.4918 18.9786ZM25.0987 28.6317C24.4646 28.6317 23.9488 28.1158 23.9488 27.4817C24.0118 25.956 26.1859 25.9565 26.2488 27.4817C26.2488 28.1159 25.733 28.6317 25.0987 28.6317Z" fill="#FF3600"/>
<path d="M11.2986 28.632H13.5986V30.932H11.2986V28.632Z" fill="white"/>
<path d="M15.8989 32.0818H18.1989V34.3818H15.8989V32.0818Z" fill="white"/>
<path d="M36.5988 28.632H38.8988V30.932H36.5988V28.632Z" fill="white"/>
<path d="M31.9988 32.0818H34.2988V34.3818H31.9988V32.0818Z" fill="white"/>
<path d="M20.4988 35.5317C20.7522 41.6358 29.4478 41.631 29.6989 35.5317V33.2317H20.4988V35.5317ZM27.3989 35.5317C27.2721 38.5838 22.9244 38.5813 22.7988 35.5317H27.3989Z" fill="white"/>
</g>
</svg>
