<svg width="40" height="41" viewBox="0 0 40 41" fill="none" xmlns="http://www.w3.org/2000/svg">
<mask id="mask0_172_392" style="mask-type:luminance" maskUnits="userSpaceOnUse" x="0" y="1" width="40" height="40">
<path d="M39.5722 1.06689H0.547852V40.0913H39.5722V1.06689Z" fill="white"/>
</mask>
<g mask="url(#mask0_172_392)">
<path d="M26.5749 26.8508C30.7276 20.3346 30.2056 21.1476 30.3253 20.9776C31.8372 18.8451 32.6362 16.3354 32.6362 13.7193C32.6362 6.78184 27.0066 1.06689 20.06 1.06689C13.1361 1.06689 7.48382 6.77055 7.48382 13.7193C7.48382 16.3336 8.29967 18.9092 9.86108 21.0704L13.545 26.8509C9.6063 27.4562 2.91064 29.2599 2.91064 33.2315C2.91064 34.6793 3.85561 36.7426 8.35744 38.3503C11.5009 39.4729 15.6569 40.0913 20.06 40.0913C28.2937 40.0913 37.2094 37.7688 37.2094 33.2315C37.2094 29.2592 30.5216 27.4573 26.5749 26.8508ZM11.7711 19.8127C11.7585 19.793 11.7454 19.7738 11.7317 19.7549C10.4324 17.9674 9.77035 15.8489 9.77035 13.7193C9.77035 8.00149 14.3745 3.35348 20.06 3.35348C25.7338 3.35348 30.3497 8.00355 30.3497 13.7193C30.3497 15.8525 29.7002 17.899 28.4711 19.6394C28.361 19.7847 28.9356 18.892 20.06 32.8191L11.7711 19.8127ZM20.06 37.8047C11.0665 37.8047 5.19723 35.1611 5.19723 33.2315C5.19723 31.9346 8.21308 29.802 14.896 28.9708L19.0958 35.561C19.3058 35.8904 19.6694 36.0897 20.0599 36.0897C20.4505 36.0897 20.8143 35.8903 21.024 35.561L25.2238 28.9708C31.9069 29.802 34.9228 31.9346 34.9228 33.2315C34.9228 35.1448 29.1063 37.8047 20.06 37.8047Z" fill="white"/>
<path d="M20.06 8.00293C16.908 8.00293 14.3435 10.5673 14.3435 13.7193C14.3435 16.8714 16.908 19.4358 20.06 19.4358C23.2121 19.4358 25.7765 16.8714 25.7765 13.7193C25.7765 10.5673 23.2121 8.00293 20.06 8.00293ZM20.06 17.1493C18.1688 17.1493 16.6301 15.6107 16.6301 13.7193C16.6301 11.8281 18.1688 10.2895 20.06 10.2895C21.9512 10.2895 23.4898 11.8281 23.4898 13.7193C23.4898 15.6107 21.9512 17.1493 20.06 17.1493Z" fill="white"/>
</g>
</svg>
