<svg width="20" height="21" viewBox="0 0 20 21" fill="none" xmlns="http://www.w3.org/2000/svg">
<path d="M15.0069 13.8317L14.3274 13.2766L13.5104 10.6067C13.472 10.4827 13.4024 10.3706 13.3084 10.2811C13.2142 10.1916 13.0988 10.1277 12.973 10.0955C11.8552 9.82961 10.7094 9.69994 9.56043 9.70954C8.41157 9.69994 7.2657 9.82961 6.14795 10.0955C6.02195 10.1276 5.90631 10.1915 5.81212 10.2811C5.71792 10.3708 5.64832 10.4831 5.60999 10.6073L4.79303 13.2773L4.11401 13.8317C3.97023 13.9489 3.85439 14.0966 3.77494 14.2642C3.69549 14.4317 3.65444 14.615 3.65479 14.8004V16.8086C3.65523 16.9871 3.71889 17.1597 3.83448 17.2957C3.95006 17.4317 4.1101 17.5224 4.28619 17.5517V18.5531C4.28635 18.7273 4.35561 18.8943 4.47879 19.0175C4.60197 19.1407 4.76899 19.2099 4.94319 19.2101H6.10687C6.28107 19.2099 6.44809 19.1407 6.57126 19.0175C6.6945 18.8943 6.76377 18.7273 6.7639 18.5531V17.5643H12.358V18.5529C12.3582 18.7271 12.4276 18.8942 12.5508 19.0175C12.674 19.1406 12.841 19.2099 13.0152 19.2101H14.1786C14.3528 19.2099 14.5199 19.1406 14.6431 19.0175C14.7662 18.8942 14.8356 18.7271 14.8358 18.5529V17.5517C15.0119 17.5224 15.1719 17.4317 15.2875 17.2957C15.4031 17.1597 15.4667 16.9871 15.4672 16.8086V14.8004C15.4674 14.6149 15.4262 14.4317 15.3466 14.264C15.2669 14.0964 15.1509 13.9487 15.0069 13.8317ZM6.24199 18.5531C6.24199 18.5893 6.22764 18.6238 6.20211 18.6493C6.17657 18.6749 6.14194 18.6893 6.10583 18.6893H4.94214C4.90603 18.6893 4.87139 18.6749 4.84586 18.6493C4.82033 18.6238 4.80597 18.5893 4.80597 18.5531V17.5643H6.24199V18.5531ZM14.1778 18.6893H13.0148C12.9786 18.6893 12.944 18.6749 12.9184 18.6493C12.8929 18.6237 12.8786 18.5891 12.8784 18.5529V17.5643H14.3144V18.5529C14.3144 18.5891 14.3 18.6237 14.2746 18.6493C14.249 18.6749 14.214 18.6893 14.1778 18.6893ZM14.9454 16.8086C14.9454 16.8709 14.9206 16.9306 14.8766 16.9746C14.8326 17.0186 14.7729 17.0433 14.7106 17.0435H4.40985C4.34759 17.0433 4.28791 17.0186 4.24389 16.9746C4.19987 16.9306 4.17511 16.8709 4.17503 16.8086V14.8004C4.17477 14.6922 4.19867 14.5853 4.24501 14.4875C4.29136 14.3895 4.35896 14.3033 4.44288 14.2349L5.18366 13.6299C5.22346 13.5973 5.25276 13.5535 5.26788 13.5043L6.10805 10.7589C6.11967 10.7202 6.14121 10.6851 6.17052 10.6573C6.19983 10.6293 6.2359 10.6096 6.27517 10.6C7.35137 10.3445 8.4545 10.2204 9.56043 10.2303C10.6664 10.2204 11.7695 10.3446 12.8456 10.6C12.8849 10.6096 12.921 10.6293 12.9504 10.6573C12.9797 10.6851 13.0013 10.7203 13.0128 10.7591L13.853 13.5045C13.8682 13.5537 13.8975 13.5973 13.9373 13.63L14.678 14.2349C14.762 14.3033 14.8295 14.3896 14.8759 14.4875C14.9222 14.5853 14.9462 14.6922 14.9459 14.8004L14.9454 16.8086Z" fill="#CECECE"/>
<path d="M6.00404 13.6151C7.18417 13.7603 8.3727 13.8265 9.5617 13.8135C10.7506 13.8265 11.9391 13.7603 13.1192 13.6151C13.1566 13.61 13.1926 13.5968 13.2244 13.5765C13.2562 13.5561 13.2832 13.529 13.3036 13.4972C13.3239 13.4654 13.3371 13.4295 13.3422 13.3921C13.3473 13.3547 13.3442 13.3165 13.3331 13.2805L12.6774 11.1376C12.664 11.0933 12.6389 11.0534 12.6049 11.0221C12.5709 10.9907 12.5292 10.9689 12.484 10.959C11.5231 10.757 10.5435 10.6581 9.5617 10.6638C8.57977 10.6574 7.6001 10.7563 6.63931 10.959C6.59413 10.9689 6.5524 10.9907 6.5184 11.0221C6.48441 11.0535 6.45937 11.0933 6.44586 11.1376L5.7902 13.2805C5.77917 13.3165 5.7761 13.3545 5.78121 13.392C5.78633 13.4293 5.79953 13.4652 5.81986 13.4969C5.8402 13.5287 5.8672 13.5558 5.89901 13.5761C5.93081 13.5963 5.96665 13.6101 6.00404 13.6151ZM6.89943 11.4365C7.77623 11.2641 8.6681 11.1796 9.5617 11.1845C10.4554 11.1803 11.3474 11.2651 12.2244 11.4376L12.7444 13.1371C11.6873 13.2491 10.6246 13.301 9.5617 13.2927C8.49863 13.3011 7.43603 13.2493 6.3789 13.1374L6.89943 11.4365Z" fill="#CECECE"/>
<path d="M10.6733 15.0436H8.44654C8.37307 15.0436 8.30054 15.0599 8.2342 15.0914C8.16787 15.1229 8.10934 15.1688 8.06294 15.2258C8.01654 15.2827 7.9834 15.3492 7.96587 15.4205C7.9484 15.4918 7.947 15.5662 7.96187 15.6381L8.10414 16.3301C8.12734 16.4416 8.18814 16.5418 8.27634 16.6136C8.3646 16.6856 8.47494 16.7251 8.5888 16.7254H10.531C10.6449 16.7251 10.7552 16.6856 10.8435 16.6136C10.9318 16.5418 10.9925 16.4416 11.0158 16.3301L11.1579 15.6381C11.1728 15.5662 11.1714 15.4918 11.1539 15.4205C11.1365 15.3492 11.1033 15.2827 11.0569 15.2258C11.0105 15.1688 10.9519 15.1229 10.8857 15.0914C10.8193 15.0599 10.7467 15.0436 10.6733 15.0436ZM8.4782 15.5645H9.29954V16.2043H8.60994L8.4782 15.5645ZM10.5099 16.2043H9.82034V15.5645H10.6416L10.5099 16.2043Z" fill="#CECECE"/>
<path d="M14.3097 15.0635C14.2131 14.9895 14.1007 14.9389 13.9812 14.9159C13.8617 14.8929 13.7386 14.8981 13.6215 14.931L12.6806 15.1919C12.5453 15.2297 12.4261 15.3107 12.341 15.4226C12.2559 15.5345 12.2097 15.6711 12.2095 15.8117V16.0673C12.2097 16.2379 12.2775 16.4014 12.3981 16.5219C12.5187 16.6425 12.6822 16.7103 12.8528 16.7104H13.9777C14.1481 16.7101 14.3114 16.6421 14.4319 16.5215C14.5522 16.401 14.6199 16.2377 14.6202 16.0673V15.6908C14.6207 15.5693 14.5929 15.4494 14.539 15.3404C14.4851 15.2315 14.4065 15.1367 14.3097 15.0635ZM14.0999 16.0673C14.0997 16.0997 14.0868 16.1309 14.0639 16.1539C14.0409 16.1767 14.0097 16.1897 13.9774 16.1897H12.8523C12.8199 16.1897 12.7887 16.1767 12.7657 16.1539C12.7428 16.1309 12.7299 16.0997 12.7299 16.0673V15.8117C12.7299 15.785 12.7386 15.759 12.7547 15.7377C12.7709 15.7165 12.7935 15.7011 12.8192 15.6937L13.7602 15.4329C13.7837 15.4264 13.8081 15.4232 13.8324 15.4231C13.9033 15.4234 13.9712 15.4517 14.0212 15.5019C14.0713 15.5521 14.0994 15.6201 14.0994 15.691L14.0999 16.0673Z" fill="#CECECE"/>
<path d="M6.4412 15.1911L5.49998 14.9301C5.38292 14.8979 5.25998 14.893 5.14074 14.9161C5.0215 14.9391 4.90918 14.9893 4.81255 15.0628C4.71591 15.1363 4.63756 15.2312 4.58361 15.3401C4.52965 15.4488 4.50153 15.5686 4.50146 15.6901V16.0665C4.50166 16.237 4.56951 16.4005 4.69011 16.5211C4.81072 16.6417 4.97422 16.7095 5.14476 16.7097H6.26976C6.44031 16.7095 6.60383 16.6417 6.72443 16.5211C6.8451 16.4005 6.9129 16.237 6.9131 16.0665V15.8108C6.91277 15.6703 6.8665 15.5336 6.7813 15.4217C6.6961 15.3097 6.57666 15.2288 6.4412 15.1911ZM6.3918 16.0665C6.39175 16.099 6.37883 16.1301 6.35587 16.153C6.33291 16.1759 6.30178 16.1888 6.26932 16.1888H5.14432C5.11186 16.1888 5.08074 16.1759 5.05778 16.153C5.03482 16.1301 5.02189 16.099 5.02185 16.0665V15.6901C5.02185 15.6191 5.04995 15.5511 5.09999 15.5009C5.15003 15.4507 5.21793 15.4224 5.28882 15.4221C5.31316 15.4221 5.33738 15.4255 5.36085 15.4319L6.30207 15.693C6.32774 15.7003 6.35035 15.7157 6.36646 15.7369C6.38258 15.7583 6.39131 15.7841 6.39135 15.8108L6.3918 16.0665Z" fill="#CECECE"/>
<path d="M13.5963 1.72595C12.788 1.72874 12.0119 2.04314 11.4295 2.60372C10.8473 3.16431 10.5035 3.92787 10.47 4.73547C10.4364 5.54309 10.7157 6.33253 11.2495 6.93949C11.7833 7.54643 12.5306 7.92417 13.3359 7.99397V9.22197C13.3359 9.29103 13.3633 9.3573 13.4122 9.4061C13.4611 9.45497 13.5273 9.48237 13.5963 9.48237C13.6653 9.48237 13.7317 9.45497 13.7805 9.4061C13.8293 9.3573 13.8568 9.29103 13.8568 9.22197V7.99397C14.662 7.92417 15.4093 7.54643 15.9433 6.93949C16.4771 6.33253 16.7562 5.54309 16.7227 4.73547C16.6892 3.92787 16.3455 3.16431 15.7631 2.60372C15.1807 2.04314 14.4046 1.72874 13.5963 1.72595ZM13.5963 5.24634C13.4325 5.24637 13.2722 5.1978 13.1359 5.10677C12.9997 5.01575 12.8935 4.88635 12.8307 4.73495C12.768 4.58355 12.7515 4.41695 12.7835 4.25622C12.8155 4.09547 12.8944 3.94783 13.0102 3.83193C13.1261 3.71605 13.2737 3.63711 13.4345 3.60513C13.5953 3.57315 13.7619 3.58955 13.9133 3.65225C14.0647 3.71496 14.194 3.82116 14.2851 3.95743C14.3761 4.09369 14.4248 4.25389 14.4248 4.41777C14.4245 4.63743 14.3372 4.84802 14.1819 5.00334C14.0266 5.15867 13.816 5.24607 13.5963 5.24634ZM13.0606 5.65542C13.2297 5.729 13.412 5.76697 13.5963 5.76697C13.7807 5.76697 13.9631 5.729 14.132 5.65542L14.956 5.83771C15.0425 5.85737 15.1199 5.90573 15.1753 5.97493C15.2309 6.04413 15.2613 6.1301 15.2619 6.21881V6.88682C14.7932 7.27422 14.2041 7.48617 13.596 7.48617C12.988 7.48617 12.399 7.27422 11.9303 6.88682V6.21867C11.9299 6.12971 11.9599 6.04331 12.0157 5.97393C12.0713 5.90454 12.1492 5.8564 12.236 5.83756L13.0606 5.65542ZM15.7839 6.30571V6.21896C15.7849 6.01125 15.7145 5.80949 15.5844 5.64753C15.4544 5.48557 15.2726 5.37324 15.0695 5.32938L14.6646 5.24009C14.8189 5.04052 14.9141 4.80171 14.9395 4.55075C14.9649 4.2998 14.9193 4.04675 14.8082 3.82033C14.6971 3.59393 14.5247 3.4032 14.3106 3.26981C14.0965 3.13643 13.8493 3.06572 13.5971 3.06572C13.3449 3.06572 13.0977 3.13643 12.8835 3.26981C12.6695 3.4032 12.4971 3.59393 12.3859 3.82033C12.2748 4.04675 12.2293 4.2998 12.2547 4.55075C12.28 4.80171 12.3753 5.04052 12.5295 5.24009L12.1246 5.32938C11.9215 5.37322 11.7397 5.48553 11.6097 5.64751C11.4797 5.80947 11.4093 6.01125 11.4103 6.21896V6.30602C11.1497 5.91109 11.0009 5.45296 10.9797 4.98025C10.9584 4.50754 11.0657 4.03793 11.2899 3.62125C11.5141 3.20457 11.847 2.8564 12.2532 2.61371C12.6593 2.37102 13.1237 2.24287 13.597 2.24287C14.0701 2.24287 14.5345 2.37102 14.9407 2.61371C15.3469 2.8564 15.6797 3.20457 15.904 3.62125C16.1282 4.03793 16.2355 4.50754 16.2142 4.98025C16.1931 5.45296 16.0445 5.91079 15.7839 6.30571Z" fill="#CECECE"/>
<path d="M5.26449 9.2218C5.26449 9.29087 5.29193 9.35714 5.34077 9.40594C5.38961 9.4548 5.45584 9.4822 5.52491 9.4822C5.59397 9.4822 5.66021 9.4548 5.70905 9.40594C5.75789 9.35714 5.78532 9.29087 5.78532 9.2218V7.9938C6.59292 7.9266 7.3433 7.54987 7.87957 6.9423C8.41583 6.33472 8.6965 5.54338 8.66283 4.7337C8.62923 3.92401 8.2839 3.15866 7.6991 2.59766C7.11437 2.03664 6.33529 1.72339 5.52491 1.72339C4.71452 1.72339 3.93551 2.03664 3.35071 2.59766C2.76592 3.15866 2.42061 3.92401 2.38699 4.7337C2.35335 5.54338 2.63401 6.33472 3.17027 6.9423C3.70654 7.54987 4.4569 7.9266 5.26449 7.9938V9.2218ZM5.52491 5.24621C5.36103 5.24624 5.20081 5.19766 5.06454 5.10664C4.92826 5.01562 4.82203 4.88622 4.7593 4.73482C4.69657 4.58342 4.68014 4.41682 4.71209 4.25608C4.74404 4.09534 4.82295 3.9477 4.93881 3.8318C5.05469 3.7159 5.20233 3.63698 5.36305 3.605C5.52379 3.57302 5.69039 3.58942 5.84181 3.65212C5.99321 3.71483 6.12262 3.82103 6.21368 3.9573C6.30473 4.09355 6.35333 4.25375 6.35333 4.41764C6.35305 4.63728 6.26569 4.84785 6.11039 5.00317C5.9551 5.1585 5.74455 5.2459 5.52491 5.24621ZM4.98919 5.65544C5.15821 5.72902 5.34057 5.76699 5.52491 5.76699C5.70924 5.76699 5.89161 5.72902 6.06063 5.65544L6.88463 5.83788C6.97157 5.85672 7.04937 5.90484 7.10503 5.97423C7.1607 6.04361 7.19083 6.13002 7.19043 6.21898V6.88713C6.72177 7.27453 6.13266 7.48647 5.52461 7.48647C4.91655 7.48647 4.32751 7.27453 3.85883 6.88713V6.21883C3.85928 6.1301 3.88975 6.04415 3.94528 5.97495C4.00081 5.90575 4.07812 5.85738 4.16464 5.83772L4.98919 5.65544ZM2.90586 4.86674C2.90535 4.45817 3.00041 4.05514 3.18344 3.68986C3.36648 3.32457 3.63241 3.00716 3.95999 2.76299C4.28759 2.51881 4.66774 2.35465 5.07009 2.2836C5.47243 2.21255 5.88582 2.23659 6.27722 2.35381C6.66863 2.47102 7.02723 2.67815 7.3243 2.95866C7.62137 3.23916 7.8487 3.58526 7.98817 3.9693C8.12763 4.35334 8.1753 4.76468 8.12743 5.17044C8.07957 5.5762 7.93743 5.96514 7.71243 6.30618V6.21912C7.7135 6.01141 7.6431 5.80964 7.51303 5.64766C7.38297 5.4857 7.20117 5.37338 6.99817 5.32954L6.59335 5.24026C6.7477 5.04066 6.84297 4.80183 6.86837 4.55083C6.89377 4.29984 6.8483 4.04674 6.73717 3.82028C6.62596 3.59381 6.45353 3.40305 6.23941 3.26963C6.0253 3.13622 5.77808 3.0655 5.52579 3.0655C5.27352 3.0655 5.02629 3.13622 4.81217 3.26963C4.59806 3.40305 4.42564 3.59381 4.31447 3.82028C4.2033 4.04674 4.15784 4.29984 4.18326 4.55083C4.20867 4.80183 4.30394 5.04066 4.45824 5.24026L4.05333 5.32954C3.8503 5.3734 3.66852 5.48573 3.53847 5.6477C3.40843 5.80966 3.33801 6.01141 3.33904 6.21912V6.30588C3.05595 5.8792 2.90575 5.37879 2.90586 4.86674Z" fill="#CECECE"/>
</svg>
