<svg width="21" height="20" viewBox="0 0 21 20" fill="none" xmlns="http://www.w3.org/2000/svg">
<path d="M20.0175 10C20.0175 15.3516 15.6425 19.6875 10.33 19.6875C4.97845 19.6875 0.642517 15.3516 0.642517 10C0.642517 4.6875 4.97845 0.3125 10.33 0.3125C15.6425 0.3125 20.0175 4.6875 20.0175 10ZM9.1972 15.1562L16.3847 7.96875C16.6191 7.73438 16.6191 7.30469 16.3847 7.07031L15.4863 6.21094C15.2519 5.9375 14.8613 5.9375 14.6269 6.21094L8.76752 12.0703L5.99408 9.33594C5.7597 9.0625 5.36908 9.0625 5.1347 9.33594L4.23627 10.1953C4.00189 10.4297 4.00189 10.8594 4.23627 11.0938L8.29877 15.1562C8.53314 15.3906 8.96283 15.3906 9.1972 15.1562Z" fill="#FF3600"/>
</svg>
