<svg width="24" height="25" viewBox="0 0 24 25" fill="none" xmlns="http://www.w3.org/2000/svg">
<g clip-path="url(#clip0_4_829)">
<mask id="mask0_4_829" style="mask-type:luminance" maskUnits="userSpaceOnUse" x="0" y="0" width="24" height="24">
<path d="M23.075 0.542847H0.275024V23.3428H23.075V0.542847Z" fill="white"/>
</mask>
<g mask="url(#mask0_4_829)">
<path fill-rule="evenodd" clip-rule="evenodd" d="M6.29348 7.44648C6.14599 7.44648 6.02415 7.32785 6.02415 7.18036V4.72433C5.67145 5.03534 5.32518 5.17642 5.30594 5.18604C5.16806 5.24054 5.01416 5.17322 4.95645 5.03855C4.90194 4.90068 4.96928 4.74357 5.10395 4.68906C5.11355 4.68586 5.72596 4.42936 6.06263 3.86505C6.20049 3.63419 6.5596 3.73038 6.5596 3.99971V7.18036C6.5596 7.32785 6.44096 7.44648 6.29348 7.44648Z" fill="#CECECE"/>
<path fill-rule="evenodd" clip-rule="evenodd" d="M11.4713 7.33609C10.8749 7.33609 10.3876 6.84873 10.3876 6.25236C10.3876 6.10486 10.5094 5.98623 10.6569 5.98623C10.8044 5.98623 10.923 6.10486 10.923 6.25236C10.923 6.55375 11.1699 6.80064 11.4713 6.80064C11.7727 6.80064 12.0195 6.55375 12.0195 6.25236C12.0195 5.95097 11.7727 5.70408 11.4713 5.70408C11.3238 5.70408 11.2052 5.58545 11.2052 5.43795C11.2052 5.29046 11.3238 5.17183 11.4713 5.17183C11.6893 5.17183 11.8689 4.99229 11.8689 4.77425C11.8689 4.55621 11.6893 4.37667 11.4713 4.37667C11.2533 4.37667 11.0737 4.55621 11.0737 4.77425C11.0737 4.92173 10.9551 5.04037 10.8076 5.04037C10.6601 5.04037 10.5415 4.92173 10.5415 4.77425C10.5415 4.26125 10.9583 3.84442 11.4713 3.84442C12.2825 3.84442 12.7057 4.81913 12.151 5.40909C12.3979 5.60789 12.5551 5.91249 12.5551 6.25236C12.5551 6.84873 12.0677 7.33609 11.4713 7.33609Z" fill="#CECECE"/>
<path fill-rule="evenodd" clip-rule="evenodd" d="M16.6821 7.33699C16.0858 7.33699 15.5984 6.84962 15.5984 6.25326C15.5984 6.10576 15.7171 5.98713 15.8645 5.98713C16.0121 5.98713 16.1338 6.10576 16.1338 6.25326C16.1338 6.55465 16.3776 6.80154 16.6821 6.80154C16.9836 6.80154 17.2304 6.55465 17.2304 6.25326C17.2304 5.95187 16.9836 5.70498 16.679 5.70498L15.919 5.70177C15.7716 5.70177 15.6497 5.58314 15.6497 5.43565V4.37116C15.6497 4.09542 15.8774 3.87097 16.1532 3.87097H17.4806C17.6281 3.87097 17.7499 3.9896 17.7499 4.13709C17.7499 4.28459 17.6281 4.40322 17.4806 4.40322H16.1852V5.16952H16.6821C17.2785 5.17273 17.7627 5.65688 17.7627 6.25326C17.7627 6.84962 17.2785 7.33699 16.6821 7.33699Z" fill="#CECECE"/>
<path fill-rule="evenodd" clip-rule="evenodd" d="M7.44769 19.9822H5.25458C5.01732 19.9822 4.89868 19.6936 5.06541 19.5268C5.1648 19.4274 5.34114 19.2638 5.5688 19.0523C5.98882 18.6643 6.56595 18.1322 6.85452 17.8082C6.97316 17.68 6.99881 17.555 6.93789 17.4138C6.83528 17.1862 6.52747 16.997 6.26455 16.997C5.86376 16.997 5.53994 17.321 5.53994 17.7185C5.53994 17.866 5.4213 17.9846 5.2738 17.9846C5.12632 17.9846 5.00769 17.866 5.00769 17.7185C5.00769 17.0258 5.5688 16.4616 6.26136 16.4616C7.10782 16.4616 7.93183 17.4138 7.25209 18.1673C6.94429 18.5073 6.36074 19.049 5.93109 19.4466C5.93109 19.4466 5.9311 19.4466 5.9279 19.4466H7.44769C7.59518 19.4466 7.71701 19.5686 7.71701 19.716C7.71701 19.8602 7.59518 19.9822 7.44769 19.9822Z" fill="#CECECE"/>
<path fill-rule="evenodd" clip-rule="evenodd" d="M11.9677 20.0525C11.8203 20.0525 11.7017 19.9307 11.7017 19.7833V19.0714H10.4287C10.2107 19.0714 10.0857 18.8245 10.2107 18.6481L11.7529 16.5032C11.9037 16.2915 12.237 16.4005 12.237 16.6602V18.536H12.6795C12.8271 18.536 12.9457 18.6545 12.9457 18.8021C12.9457 18.9496 12.8271 19.0714 12.6795 19.0714H12.237V19.7833C12.237 19.9307 12.1153 20.0525 11.9677 20.0525ZM10.9481 18.536H11.7017V17.4875L10.9481 18.536Z" fill="#CECECE"/>
<path fill-rule="evenodd" clip-rule="evenodd" d="M15.9569 20.152C15.8094 20.152 15.6875 20.0333 15.6875 19.8859V16.7885C15.6875 16.6411 15.8094 16.5225 15.9569 16.5225C16.1044 16.5225 16.223 16.6411 16.223 16.7885V19.8859C16.223 20.0333 16.1044 20.152 15.9569 20.152Z" fill="#CECECE"/>
<path fill-rule="evenodd" clip-rule="evenodd" d="M17.2682 18.7156H15.9569C15.8094 18.7156 15.6875 18.5969 15.6875 18.4495V16.7885C15.6875 16.6411 15.8094 16.5225 15.9569 16.5225H17.2682C17.8742 16.5225 18.3681 17.0131 18.3681 17.6191C18.3681 18.2251 17.8742 18.7156 17.2682 18.7156ZM16.223 18.1833H17.2682C17.5793 18.1833 17.8326 17.93 17.8326 17.6191C17.8326 17.308 17.5793 17.0547 17.2682 17.0547H16.223V18.1833Z" fill="#CECECE"/>
<path fill-rule="evenodd" clip-rule="evenodd" d="M18.1434 20.0915C18.057 20.0915 17.9703 20.0466 17.919 19.9664L17.0437 18.5943C16.9635 18.4692 17.002 18.3056 17.1238 18.2255C17.2489 18.1453 17.4157 18.1839 17.4926 18.3056L18.3678 19.6811C18.4833 19.8608 18.3519 20.0915 18.1434 20.0915Z" fill="#CECECE"/>
<path fill-rule="evenodd" clip-rule="evenodd" d="M6.188 15.8175C6.04051 15.8175 5.92188 15.6988 5.92188 15.5514V8.33401C5.92188 8.1865 6.04051 8.06787 6.188 8.06787C6.33549 8.06787 6.45412 8.1865 6.45412 8.33401V15.5514C6.45412 15.6988 6.33549 15.8175 6.188 15.8175Z" fill="#CECECE"/>
<path fill-rule="evenodd" clip-rule="evenodd" d="M11.5318 15.8175C11.3843 15.8175 11.2656 15.6988 11.2656 15.5514V8.33401C11.2656 8.1865 11.3843 8.06787 11.5318 8.06787C11.6792 8.06787 11.7979 8.1865 11.7979 8.33401V15.5514C11.7979 15.6988 11.6792 15.8175 11.5318 15.8175Z" fill="#CECECE"/>
<path fill-rule="evenodd" clip-rule="evenodd" d="M16.8773 15.8175C16.7298 15.8175 16.6079 15.6988 16.6079 15.5514V13.0826C16.6079 12.935 16.7298 12.8164 16.8773 12.8164C17.0248 12.8164 17.1434 12.935 17.1434 13.0826V15.5514C17.1434 15.6988 17.0248 15.8175 16.8773 15.8175ZM16.8773 11.069C16.7298 11.069 16.6079 10.9503 16.6079 10.8029V8.33401C16.6079 8.1865 16.7298 8.06787 16.8773 8.06787C17.0248 8.06787 17.1434 8.1865 17.1434 8.33401V10.8029C17.1434 10.9503 17.0248 11.069 16.8773 11.069Z" fill="#CECECE"/>
<path fill-rule="evenodd" clip-rule="evenodd" d="M16.8778 12.2095H6.188C6.04051 12.2095 5.92188 12.091 5.92188 11.9434C5.92188 11.7959 6.04051 11.6741 6.188 11.6741H16.8778C17.0253 11.6741 17.144 11.7959 17.144 11.9434C17.144 12.091 17.0253 12.2095 16.8778 12.2095Z" fill="#CECECE"/>
<path fill-rule="evenodd" clip-rule="evenodd" d="M18.9517 22.7174H4.40154C2.12506 22.7174 0.275024 20.8673 0.275024 18.5941V5.29115C0.275024 3.01788 2.12506 1.16785 4.40154 1.16785H18.9517C21.225 1.16785 23.075 3.01788 23.075 5.29115V18.5941C23.075 20.8673 21.225 22.7174 18.9517 22.7174ZM4.40154 1.70009C2.42003 1.70009 0.810472 3.31285 0.810472 5.29115V18.5941C0.810472 20.5724 2.42003 22.1852 4.40154 22.1852H18.9517C20.93 22.1852 22.5396 20.5724 22.5396 18.5941V5.29115C22.5396 3.31285 20.93 1.70009 18.9517 1.70009H4.40154Z" fill="#CECECE"/>
<path fill-rule="evenodd" clip-rule="evenodd" d="M18.952 21.5636H4.40189C2.76347 21.5636 1.43286 20.2329 1.43286 18.5945V5.29153C1.43286 3.65312 2.76347 2.32251 4.40189 2.32251H18.952C20.5872 2.32251 21.9211 3.65312 21.9211 5.29153V18.5945C21.9211 20.2329 20.5872 21.5636 18.952 21.5636ZM4.40189 2.85795C3.05845 2.85795 1.96511 3.9481 1.96511 5.29153V18.5945C1.96511 19.938 3.05845 21.028 4.40189 21.028H18.952C20.2923 21.028 21.3856 19.938 21.3856 18.5945V5.29153C21.3856 3.9481 20.2923 2.85795 18.952 2.85795H4.40189Z" fill="#CECECE"/>
</g>
</g>
<defs>
<clipPath id="clip0_4_829">
<rect width="24" height="24" fill="white" transform="translate(0 0.285034)"/>
</clipPath>
</defs>
</svg>
