<svg width="75" height="81" viewBox="0 0 75 81" fill="none" xmlns="http://www.w3.org/2000/svg">
<rect opacity="0.1" y="0.0199585" width="60" height="60" rx="30" fill="white"/>
<mask id="mask0_9_3194" style="mask-type:luminance" maskUnits="userSpaceOnUse" x="4" y="11" width="65" height="65">
<path d="M69 11H4V75.0152H69V11Z" fill="white"/>
</mask>
<g mask="url(#mask0_9_3194)">
<path d="M25.9467 70.6414H31.5815C34.848 70.6414 34.8529 65.6292 31.5815 65.6292H25.9467C22.6803 65.6292 22.6755 70.6414 25.9467 70.6414ZM25.9467 67.5047H31.5815C32.4093 67.5047 32.4093 68.766 31.5815 68.766H25.9467C25.119 68.766 25.119 67.5047 25.9467 67.5047Z" fill="#FF3600"/>
<path d="M32.9396 42.5529L26.7368 48.6618L24.5887 46.546C23.7179 45.6891 22.3716 47.0148 23.2421 47.8722L26.0636 50.6511C26.5125 51.0171 26.9614 51.0171 27.4101 50.6511L34.2864 43.8791C35.1567 43.0216 33.8104 41.6959 32.9396 42.5529Z" fill="#FF3600"/>
<path d="M74.2933 51.8063C73.9089 51.0836 73.6304 50.2919 73.4412 49.4973C72.5127 45.6722 71.102 41.9663 69.2488 38.4825L66.1503 32.6579C64.3964 29.3603 59.2198 29.9086 58.2425 33.5253C55.9245 32.704 53.3078 34.0539 52.6738 36.3985C50.7575 35.7194 48.5445 36.5193 47.5286 38.2551V17.6641V13.9857C47.5285 11.9656 45.8596 10.322 43.8082 10.322H21.6269C20.3959 10.322 20.3959 12.1974 21.6269 12.1974H43.8082C44.8095 12.1974 45.6242 12.9996 45.6242 13.9857V16.7264H11.9058V13.9857C11.9058 12.9996 12.7203 12.1974 13.7216 12.1974H16.295C17.5261 12.1974 17.5261 10.322 16.295 10.322H13.7216C11.6704 10.322 10.0015 11.9656 10.0015 13.9857V17.6641V62.8604V70.6733C10.0015 72.6935 11.6704 74.3371 13.7216 74.3371H43.8082C45.8595 74.3371 47.5285 72.6935 47.5285 70.6733V62.8604V59.1044L50.9309 60.7618C51.7717 61.1714 52.4627 61.8532 52.8769 62.6823C54.3883 65.7073 58.2624 66.9615 61.3055 65.3912L66.9784 62.4643C68.069 61.9017 67.1852 60.2405 66.0947 60.803L60.4218 63.73C58.3146 64.8177 55.6359 63.9563 54.5855 61.8541C53.9874 60.6572 52.9894 59.6723 51.7751 59.0806L37.3364 52.047C34.6245 50.7498 36.5857 46.5599 39.3398 47.825L44.5825 50.5429C45.3913 50.9623 46.2936 50.0756 45.8694 49.2782L36.7619 32.1576C35.2664 29.3887 39.2714 26.8329 40.799 29.705L47.2366 41.8064L48.9181 44.9674C49.4731 46.0113 51.1747 45.1683 50.6049 44.0971L48.9678 41.0197C48.3049 38.8441 51.0323 37.0899 52.7876 38.6067L54.6092 42.031C55.1643 43.0748 56.8658 42.2319 56.2961 41.1607L54.4438 37.6788C54.2705 35.6784 56.7578 34.3911 58.3301 35.7106L60.1636 39.1574C60.7186 40.2012 62.4202 39.3583 61.8504 38.2871L60.0165 34.8397C59.7671 32.3848 63.2754 31.295 64.4632 33.5281L67.5618 39.3527C69.3419 42.6991 70.6968 46.2589 71.589 49.9329C71.8055 50.8861 72.146 51.811 72.6063 52.6763C73.7035 54.7386 72.8923 57.2954 70.7985 58.3758C69.708 58.9387 70.5918 60.5998 71.6822 60.0371C74.7063 58.4769 75.8777 54.7845 74.2933 51.8063ZM45.6242 70.6733C45.6242 71.6595 44.8095 72.4616 43.8082 72.4616H13.7216C12.7203 72.4616 11.9058 71.6595 11.9058 70.6733V63.7981H45.6242V70.6733ZM34.4834 48.1305C33.837 49.4685 33.9626 51.0711 34.8048 52.2982C33.2302 53.9211 31.07 54.8406 28.7648 54.8406C24.1524 54.8406 20.3999 51.145 20.3999 46.6025C20.3999 42.0598 24.1524 38.3642 28.7648 38.3642C33.1413 38.3642 36.7412 41.692 37.0982 45.9129C35.9705 46.2518 34.9903 47.0807 34.4834 48.1305ZM41.3967 27.5215C40.9816 27.1896 40.5026 26.9342 39.9767 26.7724C36.9269 25.8339 33.8552 28.5883 34.5265 31.6643H16.4504C16.2754 31.6643 16.133 31.5241 16.133 31.3517V24.6504C16.133 24.4779 16.2754 24.3378 16.4504 24.3378H41.0794C41.2544 24.3378 41.3967 24.4779 41.3967 24.6504V27.5215ZM45.6242 34.7342L43.301 30.3673V24.6504C43.301 23.4439 42.3043 22.4623 41.0794 22.4623H16.4504C15.2255 22.4623 14.2288 23.4439 14.2288 24.6504V31.3518C14.2288 32.5582 15.2255 33.5398 16.4504 33.5398H35.3472L42.7634 47.4807L40.2083 46.156C40.1971 46.1502 40.1854 46.1444 40.1739 46.1391C39.7956 45.9618 39.3999 45.8423 38.9973 45.78C38.5705 40.5869 34.1459 36.4888 28.765 36.4888C23.1025 36.4888 18.4958 41.0258 18.4958 46.6025C18.4958 52.1792 23.1025 56.7161 28.765 56.7161C31.6049 56.7161 34.2679 55.5819 36.2024 53.5766C39.2231 55.291 42.4986 56.6542 45.6242 58.1767V61.9226H11.9058V18.6018H45.6242V34.7342Z" fill="white"/>
</g>
</svg>
